<?xml version="1.0" encoding="UTF-8" standalone="no"?>
<!-- Created with Inkscape (http://www.inkscape.org/) -->

<svg
   xmlns:dc="http://purl.org/dc/elements/1.1/"
   xmlns:cc="http://creativecommons.org/ns#"
   xmlns:rdf="http://www.w3.org/1999/02/22-rdf-syntax-ns#"
   xmlns:svg="http://www.w3.org/2000/svg"
   xmlns="http://www.w3.org/2000/svg"
   xmlns:xlink="http://www.w3.org/1999/xlink"
   xmlns:sodipodi="http://sodipodi.sourceforge.net/DTD/sodipodi-0.dtd"
   xmlns:inkscape="http://www.inkscape.org/namespaces/inkscape"
   width="7.7270756mm"
   height="7.7270575mm"
   viewBox="0 0 7.7270755 7.7270575"
   version="1.1"
   id="svg14793"
   inkscape:version="0.92.4 (unknown)"
   sodipodi:docname="logo_mini.svg">
  <defs
     id="defs14787">
    <linearGradient
       inkscape:collect="always"
       xlink:href="#linearGradient19397"
       id="linearGradient19399"
       x1="-12918.571"
       y1="-3066.052"
       x2="-12918.571"
       y2="-3176.0518"
       gradientUnits="userSpaceOnUse"
       gradientTransform="matrix(0.04872208,0,0,0.04872208,383.70879,330.51001)" />
    <linearGradient
       inkscape:collect="always"
       id="linearGradient19397">
      <stop
         style="stop-color:#ff9c09;stop-opacity:1"
         offset="0"
         id="stop19393" />
      <stop
         style="stop-color:#ff9c09;stop-opacity:0"
         offset="1"
         id="stop19395" />
    </linearGradient>
  </defs>
  <sodipodi:namedview
     id="base"
     pagecolor="#ffffff"
     bordercolor="#666666"
     borderopacity="1.0"
     inkscape:pageopacity="0.0"
     inkscape:pageshadow="2"
     inkscape:zoom="3.959798"
     inkscape:cx="77.362333"
     inkscape:cy="-26.8361"
     inkscape:document-units="mm"
     inkscape:current-layer="layer1"
     showgrid="false"
     inkscape:window-width="1920"
     inkscape:window-height="1053"
     inkscape:window-x="1366"
     inkscape:window-y="27"
     inkscape:window-maximized="1">
    <sodipodi:guide
       position="0,0"
       orientation="0,29.204695"
       id="guide826"
       inkscape:locked="false" />
    <sodipodi:guide
       position="7.7270757,0"
       orientation="-29.204627,0"
       id="guide828"
       inkscape:locked="false" />
    <sodipodi:guide
       position="7.7270757,7.7270576"
       orientation="0,-29.204695"
       id="guide830"
       inkscape:locked="false" />
    <sodipodi:guide
       position="0,7.7270576"
       orientation="29.204627,0"
       id="guide832"
       inkscape:locked="false" />
  </sodipodi:namedview>
  <metadata
     id="metadata14790">
    <rdf:RDF>
      <cc:Work
         rdf:about="">
        <dc:format>image/svg+xml</dc:format>
        <dc:type
           rdf:resource="http://purl.org/dc/dcmitype/StillImage" />
        <dc:title />
      </cc:Work>
    </rdf:RDF>
  </metadata>
  <g
     inkscape:label="Layer 1"
     inkscape:groupmode="layer"
     id="layer1"
     transform="translate(249.48125,-174.45195)">
    <rect
       ry="2.0157461"
       rx="2.0157461"
       y="174.45198"
       x="-249.4812"
       height="7.7270269"
       width="7.7270269"
       id="rect18199"
       style="opacity:1;fill:#ffc209;fill-opacity:1;stroke:none;stroke-width:1.39666617;stroke-linecap:round;stroke-linejoin:bevel;stroke-miterlimit:4;stroke-dasharray:none;stroke-dashoffset:0;stroke-opacity:1"
       inkscape:export-filename="/home/ridwanzal/VSCODE/scafol/img/logo_main.png"
       inkscape:export-xdpi="25.531412"
       inkscape:export-ydpi="25.531412" />
    <path
       style="opacity:1;fill:url(#linearGradient19399);fill-opacity:1;stroke:none;stroke-width:1.39666617;stroke-linecap:round;stroke-linejoin:bevel;stroke-miterlimit:4;stroke-dasharray:none;stroke-dashoffset:0;stroke-opacity:1"
       d="m -247.46547,174.45195 c -1.1167,0 -2.01578,0.89906 -2.01578,2.01579 v 1.90853 h 7.72705 v -1.90853 c 0,-1.11673 -0.89899,-2.01579 -2.01569,-2.01579 z"
       id="rect19380"
       inkscape:connector-curvature="0"
       inkscape:export-filename="/home/ridwanzal/VSCODE/scafol/img/logo_main.png"
       inkscape:export-xdpi="25.531412"
       inkscape:export-ydpi="25.531412" />
    <g
       id="g18209"
       transform="matrix(0.04667116,0,0,-0.04667116,-102.08434,384.76936)"
       inkscape:export-filename="/home/ridwanzal/VSCODE/scafol/img/logo_main.png"
       inkscape:export-xdpi="25.531412"
       inkscape:export-ydpi="25.531412">
      <g
         style="fill:#ffffff"
         id="g18203"
         transform="matrix(1.2642947,0,0,1.2642947,-3021.7833,4405.7399)">
        <path
           d="M 0,0 C -0.2,0.026 -0.634,0.223 -2.899,0.488 L -5.772,22.2 c 0,7.137 -5.786,12.923 -12.923,12.923 -1.539,0 -2.786,-1.245 -2.786,-2.783 V 15.39 h -2.62 v 23.258 c 0,4.281 -3.15,6.205 -7.752,7.752 -0.309,0.104 -0.691,0.222 -1.126,0.35 -6.609,1.938 -13.655,1.928 -20.222,-0.149 -0.221,-0.07 -0.425,-0.137 -0.61,-0.201 -4.044,-1.402 -7.752,-3.471 -7.752,-7.752 V 15.39 h -2.619 v 16.946 c 0,1.539 -1.248,2.787 -2.786,2.787 -7.138,0 -12.924,-5.786 -12.924,-12.923 L -82.778,0.398 c -1.581,-0.221 -1.814,-0.38 -1.981,-0.403 -2.202,-0.305 -3.741,-2.336 -3.438,-4.54 0.304,-2.203 2.341,-3.748 4.54,-3.441 0.151,0.021 13.505,2.077 41.295,2.077 26.764,0 41.17,-2.061 41.331,-2.081 0.175,-0.023 0.347,-0.033 0.519,-0.033 1.996,0 3.729,1.481 3.991,3.513 C 3.763,-2.304 2.206,-0.285 0,0"
           style="fill:#ffffff;fill-opacity:1;fill-rule:nonzero;stroke:none"
           id="path18201"
           inkscape:connector-curvature="0" />
      </g>
      <g
         style="fill:#ffffff;fill-opacity:1"
         transform="matrix(1.2642947,0,0,1.2642947,-3016.4837,4388.1949)"
         id="g18207">
        <path
           inkscape:connector-curvature="0"
           id="path18205"
           style="fill:#ffffff;fill-opacity:1;fill-rule:nonzero;stroke:none"
           d="m 0,0 -2.584,0.076 c -0.092,1.263 -0.725,2.208 -2.041,2.177 h -84.199 c -0.649,-0.53 -1.127,-1.85 -1.437,-2.756 l -0.103,-0.292 -1.069,-4.942 0.067,4.932 -1.864,-0.074 c 0,0 -0.169,-4.183 1.486,-5.012 l 0.01,-0.004 c 0.164,-0.081 0.344,-0.129 0.545,-0.137 0.9,-0.036 1.937,-0.052 2.857,0 0.043,-0.002 0.085,-0.001 0.129,0 h 82.671 c 1.053,-0.066 2.288,-0.042 3.347,0 C 0.219,-5.938 0,0 0,0" />
      </g>
    </g>
  </g>
</svg>
