<?xml version="1.0" encoding="UTF-8" standalone="no"?>
<!-- Created with Inkscape (http://www.inkscape.org/) -->

<svg
   xmlns:dc="http://purl.org/dc/elements/1.1/"
   xmlns:cc="http://creativecommons.org/ns#"
   xmlns:rdf="http://www.w3.org/1999/02/22-rdf-syntax-ns#"
   xmlns:svg="http://www.w3.org/2000/svg"
   xmlns="http://www.w3.org/2000/svg"
   xmlns:xlink="http://www.w3.org/1999/xlink"
   xmlns:sodipodi="http://sodipodi.sourceforge.net/DTD/sodipodi-0.dtd"
   xmlns:inkscape="http://www.inkscape.org/namespaces/inkscape"
   width="34.807735mm"
   height="7.7270575mm"
   viewBox="0 0 34.807735 7.7270575"
   version="1.1"
   id="svg14793"
   inkscape:version="0.92.2 (unknown)"
   sodipodi:docname="logo_dashboard.svg">
  <defs
     id="defs14787">
    <linearGradient
       inkscape:collect="always"
       xlink:href="#linearGradient19397"
       id="linearGradient19399"
       x1="-12918.571"
       y1="-3066.052"
       x2="-12918.571"
       y2="-3176.0518"
       gradientUnits="userSpaceOnUse"
       gradientTransform="matrix(0.04872208,0,0,0.04872208,383.70879,330.51001)" />
    <linearGradient
       inkscape:collect="always"
       id="linearGradient19397">
      <stop
         style="stop-color:#ff9c09;stop-opacity:1;"
         offset="0"
         id="stop19393" />
      <stop
         style="stop-color:#ff9c09;stop-opacity:0;"
         offset="1"
         id="stop19395" />
    </linearGradient>
  </defs>
  <sodipodi:namedview
     id="base"
     pagecolor="#ffffff"
     bordercolor="#666666"
     borderopacity="1.0"
     inkscape:pageopacity="0.0"
     inkscape:pageshadow="2"
     inkscape:zoom="2.8"
     inkscape:cx="113.0959"
     inkscape:cy="-48.899049"
     inkscape:document-units="mm"
     inkscape:current-layer="layer1"
     showgrid="false"
     inkscape:window-width="1920"
     inkscape:window-height="1020"
     inkscape:window-x="1366"
     inkscape:window-y="21"
     inkscape:window-maximized="1" />
  <metadata
     id="metadata14790">
    <rdf:RDF>
      <cc:Work
         rdf:about="">
        <dc:format>image/svg+xml</dc:format>
        <dc:type
           rdf:resource="http://purl.org/dc/dcmitype/StillImage" />
        <dc:title></dc:title>
      </cc:Work>
    </rdf:RDF>
  </metadata>
  <g
     inkscape:label="Layer 1"
     inkscape:groupmode="layer"
     id="layer1"
     transform="translate(249.48125,-174.45195)">
    <rect
       ry="2.0157461"
       rx="2.0157461"
       y="174.45198"
       x="-249.4812"
       height="7.7270269"
       width="7.7270269"
       id="rect18199"
       style="opacity:1;fill:#ffc209;fill-opacity:1;stroke:none;stroke-width:1.39666617;stroke-linecap:round;stroke-linejoin:bevel;stroke-miterlimit:4;stroke-dasharray:none;stroke-dashoffset:0;stroke-opacity:1"
       inkscape:export-filename="/home/ridwanzal/VSCODE/scafol/img/logo_main.png"
       inkscape:export-xdpi="25.531412"
       inkscape:export-ydpi="25.531412" />
    <path
       style="opacity:1;fill:url(#linearGradient19399);fill-opacity:1;stroke:none;stroke-width:1.39666617;stroke-linecap:round;stroke-linejoin:bevel;stroke-miterlimit:4;stroke-dasharray:none;stroke-dashoffset:0;stroke-opacity:1"
       d="m -247.46547,174.45195 c -1.1167,0 -2.01578,0.89906 -2.01578,2.01579 v 1.90853 h 7.72705 v -1.90853 c 0,-1.11673 -0.89899,-2.01579 -2.01569,-2.01579 z"
       id="rect19380"
       inkscape:connector-curvature="0"
       inkscape:export-filename="/home/ridwanzal/VSCODE/scafol/img/logo_main.png"
       inkscape:export-xdpi="25.531412"
       inkscape:export-ydpi="25.531412" />
    <g
       id="g18209"
       transform="matrix(0.04667116,0,0,-0.04667116,-102.08434,384.76936)"
       inkscape:export-filename="/home/ridwanzal/VSCODE/scafol/img/logo_main.png"
       inkscape:export-xdpi="25.531412"
       inkscape:export-ydpi="25.531412">
      <g
         style="fill:#ffffff"
         id="g18203"
         transform="matrix(1.2642947,0,0,1.2642947,-3021.7833,4405.7399)">
        <path
           d="M 0,0 C -0.2,0.026 -0.634,0.223 -2.899,0.488 L -5.772,22.2 c 0,7.137 -5.786,12.923 -12.923,12.923 -1.539,0 -2.786,-1.245 -2.786,-2.783 V 15.39 h -2.62 v 23.258 c 0,4.281 -3.15,6.205 -7.752,7.752 -0.309,0.104 -0.691,0.222 -1.126,0.35 -6.609,1.938 -13.655,1.928 -20.222,-0.149 -0.221,-0.07 -0.425,-0.137 -0.61,-0.201 -4.044,-1.402 -7.752,-3.471 -7.752,-7.752 V 15.39 h -2.619 v 16.946 c 0,1.539 -1.248,2.787 -2.786,2.787 -7.138,0 -12.924,-5.786 -12.924,-12.923 L -82.778,0.398 c -1.581,-0.221 -1.814,-0.38 -1.981,-0.403 -2.202,-0.305 -3.741,-2.336 -3.438,-4.54 0.304,-2.203 2.341,-3.748 4.54,-3.441 0.151,0.021 13.505,2.077 41.295,2.077 26.764,0 41.17,-2.061 41.331,-2.081 0.175,-0.023 0.347,-0.033 0.519,-0.033 1.996,0 3.729,1.481 3.991,3.513 C 3.763,-2.304 2.206,-0.285 0,0"
           style="fill:#ffffff;fill-opacity:1;fill-rule:nonzero;stroke:none"
           id="path18201"
           inkscape:connector-curvature="0" />
      </g>
      <g
         style="fill:#ffffff;fill-opacity:1"
         transform="matrix(1.2642947,0,0,1.2642947,-3016.4837,4388.1949)"
         id="g18207">
        <path
           inkscape:connector-curvature="0"
           id="path18205"
           style="fill:#ffffff;fill-opacity:1;fill-rule:nonzero;stroke:none"
           d="m 0,0 -2.584,0.076 c -0.092,1.263 -0.725,2.208 -2.041,2.177 h -84.199 c -0.649,-0.53 -1.127,-1.85 -1.437,-2.756 l -0.103,-0.292 -1.069,-4.942 0.067,4.932 -1.864,-0.074 c 0,0 -0.169,-4.183 1.486,-5.012 l 0.01,-0.004 c 0.164,-0.081 0.344,-0.129 0.545,-0.137 0.9,-0.036 1.937,-0.052 2.857,0 0.043,-0.002 0.085,-0.001 0.129,0 h 82.671 c 1.053,-0.066 2.288,-0.042 3.347,0 C 0.219,-5.938 0,0 0,0" />
      </g>
    </g>
    <path
       style="font-style:normal;font-variant:normal;font-weight:normal;font-stretch:normal;font-size:medium;line-height:1.25;font-family:'Tabarra Black';-inkscape-font-specification:'Tabarra Black, ';letter-spacing:0.24361038px;word-spacing:0px;fill:#000000;fill-opacity:1;stroke:none;stroke-width:0.53104776"
       d="M 40.662109 6.3515625 C 39.656654 6.3515625 38.743217 6.4794837 37.921875 6.734375 C 37.100508 6.9892915 36.39897 7.3510586 35.818359 7.8183594 C 35.237748 8.2856854 34.784679 8.8520033 34.458984 9.5175781 C 34.147425 10.169017 33.992188 10.890573 33.992188 11.683594 C 33.992188 12.533282 34.112634 13.249467 34.353516 13.830078 C 34.608407 14.410689 34.982868 14.905748 35.478516 15.316406 C 35.988323 15.712929 36.618602 16.0527 37.369141 16.335938 C 38.119704 16.604863 39.0058 16.858727 40.025391 17.099609 C 40.591841 17.226853 41.05758 17.347552 41.425781 17.460938 C 41.793983 17.559961 42.084466 17.665911 42.296875 17.779297 C 42.523521 17.892683 42.680712 18.013129 42.765625 18.140625 C 42.864649 18.268121 42.914062 18.41069 42.914062 18.566406 C 42.914062 18.977039 42.751501 19.28217 42.425781 19.480469 C 42.114247 19.664658 41.540606 19.755859 40.705078 19.755859 C 40.322741 19.755859 39.897013 19.721194 39.429688 19.650391 C 38.976522 19.565477 38.516154 19.459527 38.048828 19.332031 C 37.595663 19.190526 37.157266 19.025986 36.732422 18.841797 C 36.307603 18.643523 35.938512 18.438972 35.626953 18.226562 L 33.482422 21.710938 C 34.374567 22.305709 35.443267 22.800743 36.689453 23.197266 C 37.935664 23.579628 39.245509 23.771484 40.619141 23.771484 C 41.667078 23.771484 42.615156 23.65816 43.464844 23.431641 C 44.328667 23.205071 45.066849 22.865275 45.675781 22.412109 C 46.284714 21.958944 46.750452 21.392626 47.076172 20.712891 C 47.416052 20.033155 47.585938 19.238362 47.585938 18.332031 C 47.585938 17.52485 47.465239 16.837935 47.224609 16.271484 C 46.983879 15.690873 46.616741 15.19584 46.121094 14.785156 C 45.625447 14.360312 44.987844 13.99857 44.208984 13.701172 C 43.430099 13.389638 42.509363 13.106479 41.447266 12.851562 C 40.909136 12.724066 40.463391 12.610742 40.109375 12.511719 C 39.755334 12.398333 39.472175 12.292383 39.259766 12.193359 C 39.047281 12.080226 38.899367 11.966901 38.814453 11.853516 C 38.72954 11.725969 38.685547 11.57803 38.685547 11.408203 C 38.685547 11.110754 38.813468 10.847613 39.068359 10.621094 C 39.337437 10.394574 39.83247 10.28125 40.554688 10.28125 C 41.418536 10.28125 42.2187 10.3872 42.955078 10.599609 C 43.705617 10.812019 44.463791 11.18111 45.228516 11.705078 L 47.394531 8.3066406 C 46.488226 7.6835477 45.498133 7.2012084 44.421875 6.8613281 C 43.359777 6.521473 42.106569 6.3515625 40.662109 6.3515625 z M 57.769531 6.3945312 C 56.509185 6.3945313 55.349207 6.6210786 54.287109 7.0742188 C 53.239172 7.5132235 52.32576 8.1234587 51.546875 8.9023438 C 50.768015 9.6812036 50.157755 10.600012 49.71875 11.662109 C 49.293931 12.724207 49.082031 13.864167 49.082031 15.082031 C 49.082031 16.342378 49.293931 17.504309 49.71875 18.566406 C 50.143594 19.614343 50.739207 20.520432 51.503906 21.285156 C 52.268631 22.049855 53.182043 22.652792 54.244141 23.091797 C 55.320399 23.516641 56.495024 23.728516 57.769531 23.728516 C 59.298955 23.728516 60.680084 23.416087 61.912109 22.792969 C 63.144135 22.155715 64.136155 21.271573 64.886719 20.138672 L 61.019531 17.376953 C 60.66549 17.929243 60.197799 18.367665 59.617188 18.693359 C 59.050737 19.004918 58.435106 19.162109 57.769531 19.162109 C 57.217241 19.162109 56.692913 19.054206 56.197266 18.841797 C 55.715779 18.629362 55.292005 18.340833 54.923828 17.972656 C 54.569787 17.590294 54.286628 17.149944 54.074219 16.654297 C 53.861809 16.15865 53.755859 15.634321 53.755859 15.082031 C 53.755859 14.473099 53.854435 13.914105 54.052734 13.404297 C 54.265169 12.880328 54.548303 12.434583 54.902344 12.066406 C 55.27052 11.69823 55.694295 11.415096 56.175781 11.216797 C 56.671428 11.004387 57.203081 10.898438 57.769531 10.898438 C 58.420945 10.898438 59.058548 11.033657 59.681641 11.302734 C 60.318894 11.571786 60.813928 11.980913 61.167969 12.533203 L 64.822266 9.6875 C 64.043406 8.639563 63.038666 7.8320754 61.806641 7.265625 C 60.574615 6.685014 59.228152 6.3945312 57.769531 6.3945312 z M 105.80469 6.4160156 C 104.54434 6.4160156 103.38241 6.6425378 102.32031 7.0957031 C 101.27238 7.5346827 100.35894 8.1503137 99.580078 8.9433594 C 98.801193 9.7222192 98.192886 10.64298 97.753906 11.705078 C 97.329062 12.753015 97.117188 13.885651 97.117188 15.103516 C 97.117188 16.363862 97.329062 17.525793 97.753906 18.587891 C 98.178725 19.635828 98.774338 20.541916 99.539062 21.306641 C 100.30376 22.07134 101.2172 22.672323 102.2793 23.111328 C 103.35556 23.536172 104.53018 23.75 105.80469 23.75 C 107.03671 23.75 108.17667 23.543496 109.22461 23.132812 C 110.27255 22.707968 111.17863 22.114309 111.94336 21.349609 C 112.70806 20.584885 113.30367 19.671473 113.72852 18.609375 C 114.15336 17.547277 114.36523 16.378023 114.36523 15.103516 C 114.36523 13.85733 114.14604 12.704676 113.70703 11.642578 C 113.28219 10.58048 112.68657 9.6597192 111.92188 8.8808594 C 111.15715 8.1019743 110.25106 7.4990628 109.20312 7.0742188 C 108.16935 6.6352392 107.03671 6.4160156 105.80469 6.4160156 z M 71.408203 6.8613281 L 65.927734 23.302734 L 70.517578 23.302734 L 71.132812 21.158203 L 76.507812 21.158203 L 77.123047 23.302734 L 81.966797 23.302734 L 76.464844 6.8613281 L 71.408203 6.8613281 z M 83.712891 6.8613281 L 83.712891 23.302734 L 88.34375 23.302734 L 88.34375 16.802734 L 94.884766 16.802734 L 94.884766 13.150391 L 88.34375 13.150391 L 88.34375 10.28125 L 96.5 10.28125 L 96.5 6.8613281 L 83.712891 6.8613281 z M 116.23828 6.8613281 L 116.23828 23.302734 L 127.94336 23.302734 L 127.94336 19.777344 L 120.86914 19.777344 L 120.86914 6.8613281 L 116.23828 6.8613281 z M 105.80469 10.919922 C 106.32866 10.919922 106.82369 11.018498 107.29102 11.216797 C 107.75834 11.415071 108.16942 11.698205 108.52344 12.066406 C 108.87743 12.420422 109.15326 12.858844 109.35156 13.382812 C 109.56397 13.89262 109.66992 14.466262 109.66992 15.103516 C 109.66992 15.669966 109.56397 16.201618 109.35156 16.697266 C 109.15331 17.192913 108.87748 17.623986 108.52344 17.992188 C 108.18358 18.360389 107.7725 18.650872 107.29102 18.863281 C 106.82369 19.075691 106.32866 19.181641 105.80469 19.181641 C 105.2524 19.181641 104.72807 19.075691 104.23242 18.863281 C 103.75094 18.650847 103.32716 18.360364 102.95898 17.992188 C 102.60494 17.609825 102.32178 17.171428 102.10938 16.675781 C 101.89697 16.180134 101.79102 15.655805 101.79102 15.103516 C 101.79102 14.494583 101.88959 13.935589 102.08789 13.425781 C 102.3003 12.901813 102.58346 12.456067 102.9375 12.087891 C 103.30568 11.719739 103.72945 11.43658 104.21094 11.238281 C 104.70658 11.025872 105.23824 10.919922 105.80469 10.919922 z M 73.830078 11.832031 L 75.572266 17.716797 L 72.173828 17.716797 L 73.830078 11.832031 z "
       transform="matrix(0.26458333,0,0,0.26458333,-249.48125,174.45195)"
       id="path15501" />
    <text
       xml:space="preserve"
       style="font-style:normal;font-weight:normal;font-size:1.469522px;line-height:1.25;font-family:sans-serif;letter-spacing:0px;word-spacing:0px;fill:#000000;fill-opacity:1;stroke:none;stroke-width:0.03673805"
       x="-216.69626"
       y="177.3308"
       id="text5367"
       inkscape:export-filename="/home/ridwanzal/VSCODE/scafol/img/logo_main.png"
       inkscape:export-xdpi="25.531412"
       inkscape:export-ydpi="25.531412"><tspan
         sodipodi:role="line"
         id="tspan5365"
         x="-216.69626"
         y="177.3308"
         style="stroke-width:0.03673805">TM</tspan></text>
  </g>
</svg>
